#!OML:ASF X:\für Bonn\!DataBase\2005_08_10_Bjorn_Final\c3d\bjorn.ASF
:FULLY-SPECIFIED
:DEGREES
201
root -1.01144 18.6098 -1.42423 591.131 81.9605 -120.713
lowerback 1.76132 3.08198 -5.57611
upperback 12.3196 5.81924 -4.59745
thorax 12.363 2.91986 -1.32863
lowerneck 6.97321 -5.00916 -0.602187
upperneck 18.5233 -7.42896 11.7131
head 4.86919 -2.77684 3.64099
rclavicle 7.15625e-014 -1.62208e-013
rhumerus -29.0429 -22.0013 -79.3195
rradius 29.2687
rwrist 10.4536
rhand -9.61199 16.6517
rfingers 7.12502
rthumb 16.3573 -12.6785
lclavicle 7.15625e-014 -1.62208e-013
lhumerus 3.73515 8.22279 69.7639
lradius 51.6164
lwrist -15.1763
lhand -36.268 -14.8453
lfingers 7.12502
lthumb -9.36836 14.9265
rfemur -36.7588 -12.0496 15.7515
rtibia 44.837
rfoot -2.77706 17.1838
rtoes -21.0283
lfemur 0.03394 -8.12826 -13.1987
ltibia 38.5791
lfoot -23.8548 -0.0908603
ltoes -11.4851
202
root -0.951552 18.5895 -1.41677 590.441 82.0884 -121.52
lowerback 1.64916 3.08932 -5.59717
upperback 12.3106 5.85166 -4.67756
thorax 12.431 2.93815 -1.39401
lowerneck 7.08289 -5.00707 -0.575758
upperneck 18.3415 -7.41196 11.7467
head 4.79361 -2.77903 3.64938
rclavicle -6.59965e-014 -2.22639e-014
rhumerus -28.9662 -21.891 -79.3568
rradius 29.2876
rwrist 10.3111
rhand -9.48658 16.6671
rfingers 7.12502
rthumb 16.478 -12.6532
lclavicle -6.59965e-014 -2.22639e-014
lhumerus 3.71195 8.21365 69.6334
lradius 51.6811
lwrist -15.129
lhand -36.278 -14.7983
lfingers 7.12502
lthumb -9.37805 14.9731
rfemur -36.4072 -11.9941 15.6043
rtibia 43.8081
rfoot -2.34886 16.778
rtoes -20.9514
lfemur 0.0540094 -8.10833 -13.3606
ltibia 38.7322
lfoot -24.1011 -0.085468
ltoes -11.5513
203
root -0.891641 18.5691 -1.40972 589.681 82.2115 -122.387
lowerback 1.54292 3.09102 -5.59356
upperback 12.3154 5.87848 -4.76258
thorax 12.515 2.95714 -1.47876
lowerneck 7.1828 -5.01198 -0.527494
upperneck 18.1287 -7.40069 11.7592
head 4.70922 -2.78575 3.64672
rclavicle -2.14687e-014 4.77083e-014
rhumerus -28.8732 -21.8925 -79.3882
rradius 29.2848
rwrist 10.3218
rhand -9.43811 16.694
rfingers 7.12502
rthumb 16.5247 -12.6223
lclavicle -2.14687e-014 4.77083e-014
lhumerus 3.69801 8.18551 69.4834
lradius 51.7251
lwrist -15.0962
lhand -36.3024 -14.7598
lfingers 7.12502
lthumb -9.40156 15.0105
rfemur -36.039 -11.9552 15.4571
rtibia 42.8174
rfoot -1.96261 16.3729
rtoes -20.9374
lfemur 0.0894562 -8.09258 -13.5242
ltibia 38.8837
lfoot -24.3581 -0.0534799
ltoes -11.8678
204
root -0.830614 18.5484 -1.4017 588.67 82.3816 -123.532
lowerback 1.42615 3.09071 -5.67822
upperback 12.3012 5.90416 -4.84534
thorax 12.5752 2.96565 -1.51283
lowerneck 7.27524 -5.01608 -0.46864
upperneck 17.9689 -7.38905 11.7639
head 4.64213 -2.78812 3.64017
rclavicle 1.98785e-014 1.90833e-014
rhumerus -28.8179 -21.7628 -79.4119
rradius 29.3227
rwrist 10.1931
rhand -9.34417 16.6895
rfingers 7.12502
rthumb 16.6151 -12.6193
lclavicle 1.98785e-014 1.90833e-014
lhumerus 3.6703 8.16477 69.328
lradius 51.7239
lwrist -15.0696
lhand -36.3319 -14.6799
lfingers 7.12502
lthumb -9.43002 15.0891
rfemur -35.6972 -11.8909 15.2376
rtibia 41.863
rfoot -1.54936 15.9656
rtoes -20.8153
lfemur 0.109702 -8.08983 -13.75
ltibia 39.0229
lfoot -24.5878 -0.0547928
ltoes -11.9174
205
root -0.768907 18.5292 -1.39165 587.652 82.5504 -124.727
lowerback 1.25692 3.09275 -5.757
upperback 12.287 5.93959 -4.93802
thorax 12.6699 2.97909 -1.55663
lowerneck 7.26029 -5.02786 -0.394955
upperneck 17.9082 -7.40041 11.7774
head 4.62479 -2.7912 3.63107
rclavicle -3.49861e-014 6.36111e-015
rhumerus -28.7579 -21.818 -79.4224
rradius 29.3201
rwrist 10.2234
rhand -9.29937 16.7249
rfingers 7.12502
rthumb 16.6582 -12.5803
lclavicle -3.49861e-014 6.36111e-015
lhumerus 3.65531 8.11988 69.1355
lradius 51.7193
lwrist -14.9538
lhand -36.2623 -14.769
lfingers 7.12502
lthumb -9.36285 15.003
rfemur -35.4088 -11.8295 15.0356
rtibia 40.9443
rfoot -1.11535 15.517
rtoes -20.6652
lfemur 0.0783398 -8.05136 -13.9515
ltibia 39.1554
lfoot -24.8213 -0.0932491
ltoes -11.9396
206
root -0.707712 18.5104 -1.38196 586.459 82.7324 -126.078
lowerback 1.11465 3.1 -5.84274
upperback 12.2788 5.98127 -5.02518
thorax 12.7542 2.99525 -1.59172
lowerneck 7.27747 -5.03837 -0.307571
upperneck 17.7934 -7.40501 11.8003
head 4.58491 -2.79372 3.62342
rclavicle -1.27222e-014 7.31528e-014
rhumerus -28.6975 -21.7222 -79.446
rradius 29.3551
rwrist 10.0793
rhand -9.2734 16.6988
rfingers 7.12502
rthumb 16.6833 -12.6043
lclavicle -1.27222e-014 7.31528e-014
lhumerus 3.64586 8.03632 68.9446
lradius 51.7004
lwrist -14.7704
lhand -36.2458 -14.8667
lfingers 7.12502
lthumb -9.34694 14.906
rfemur -35.1064 -11.7962 14.8097
rtibia 40.0601
rfoot -0.634435 15.0792
rtoes -20.3106
lfemur 0.0763411 -7.99908 -14.1806
ltibia 39.2795
lfoot -25.0566 -0.0807571
ltoes -12.2595
207
root -0.645844 18.4906 -1.37159 585.315 82.8949 -127.41
lowerback 0.956953 3.11803 -5.89561
upperback 12.2642 6.03566 -5.10824
thorax 12.8426 3.02021 -1.63814
lowerneck 7.30575 -5.07392 -0.159355
upperneck 17.6528 -7.43376 11.7852
head 4.53404 -2.80795 3.59318
rclavicle 3.02153e-014 3.18055e-014
rhumerus -28.6636 -21.7232 -79.4355
rradius 29.3859
rwrist 10.0418
rhand -9.22456 16.7015
rfingers 7.12502
rthumb 16.7303 -12.5976
lclavicle 3.02153e-014 3.18055e-014
lhumerus 3.64866 7.9071 68.7478
lradius 51.669
lwrist -14.5547
lhand -36.1771 -15.0116
lfingers 7.12502
lthumb -9.28066 14.7641
rfemur -34.8447 -11.7765 14.6118
rtibia 39.2125
rfoot -0.132596 14.6803
rtoes -19.951
lfemur 0.0476833 -7.95733 -14.3792
ltibia 39.3956
lfoot -25.2876 -0.122272
ltoes -12.2929
208
root -0.582978 18.4719 -1.36012 583.995 83.0687 -128.899
lowerback 0.806634 3.13951 -5.94058
upperback 12.2629 6.10161 -5.21595
thorax 12.9476 3.05462 -1.7148
lowerneck 7.315 -5.1107 0.0674783
upperneck 17.4999 -7.45966 11.7637
head 4.47988 -2.81609 3.54751
rclavicle -5.40694e-014 6.67916e-014
rhumerus -28.6141 -21.773 -79.4691
rradius 29.4109
rwrist 10.0353
rhand -9.19877 16.6553
rfingers 7.12502
rthumb 16.7551 -12.6417
lclavicle -5.40694e-014 6.67916e-014
lhumerus 3.67486 7.78807 68.5426
lradius 51.6328
lwrist -14.3958
lhand -36.0801 -15.1851
lfingers 7.12502
lthumb -9.18714 14.5948
rfemur -34.5588 -11.7497 14.3884
rtibia 38.3915
rfoot 0.401005 14.2222
rtoes -19.6479
lfemur 0.0451294 -7.89107 -14.5881
ltibia 39.5027
lfoot -25.5199 -0.160543
ltoes -12.567
209
root -0.519848 18.4536 -1.34802 582.85 83.2075 -130.221
lowerback 0.652331 3.1536 -5.98898
upperback 12.2614 6.147 -5.26135
thorax 13.0452 3.07218 -1.72334
lowerneck 7.32721 -5.13207 0.189905
upperneck 17.3502 -7.47207 11.76
head 4.4288 -2.82392 3.5253
rclavicle -4.77083e-015 9.22361e-014
rhumerus -28.5567 -21.7341 -79.4276
rradius 29.4272
rwrist 9.99079
rhand -9.16947 16.6615
rfingers 7.12502
rthumb 16.7833 -12.6331
lclavicle -4.77083e-015 9.22361e-014
lhumerus 3.6227 7.69678 68.3718
lradius 51.6395
lwrist -14.1616
lhand -35.9433 -15.4282
lfingers 7.12502
lthumb -9.05509 14.3575
rfemur -34.2934 -11.7902 14.2341
rtibia 37.6039
rfoot 0.975717 13.8179
rtoes -19.2136
lfemur 0.0427509 -7.84956 -14.7546
ltibia 39.5961
lfoot -25.7288 -0.211311
ltoes -12.6185
210
root -0.456684 18.4364 -1.33469 581.77 83.3287 -131.445
lowerback 0.552564 3.18076 -5.97175
upperback 12.2614 6.20753 -5.33982
thorax 13.1216 3.10908 -1.80565
lowerneck 7.32386 -5.17801 0.439385
upperneck 17.1953 -7.50783 11.7234
head 4.37568 -2.8363 3.47082
rclavicle 5.56597e-015 6.36111e-015
rhumerus -28.5313 -21.7579 -79.4421
rradius 29.4571
rwrist 9.96444
rhand -9.15489 16.6506
rfingers 7.12502
rthumb 16.7973 -12.6428
lclavicle 5.56597e-015 6.36111e-015
lhumerus 3.58436 7.53648 68.1471
lradius 51.6616
lwrist -13.9189
lhand -35.792 -15.6219
lfingers 7.12502
lthumb -8.90904 14.17
rfemur -33.9825 -11.7679 14.082
rtibia 36.8419
rfoot 1.5405 13.3681
rtoes -18.9667
lfemur 0.0811189 -7.77551 -14.8805
ltibia 39.674
lfoot -25.9495 -0.271267
ltoes -12.8061
211
root -0.392321 18.4217 -1.32057 580.884 83.4127 -132.527
lowerback 0.385625 3.20127 -5.92929
upperback 12.2643 6.2574 -5.381
thorax 13.24 3.13783 -1.8575
lowerneck 7.28655 -5.2057 0.586506
upperneck 17.0308 -7.53258 11.7389
head 4.32882 -2.84764 3.44904
rclavicle -4.92986e-014 -2.22639e-014
rhumerus -28.4741 -21.8324 -79.407
rradius 29.4566
rwrist 9.9423
rhand -9.14433 16.648
rfingers 7.12502
rthumb 16.8075 -12.6446
lclavicle -4.92986e-014 -2.22639e-014
lhumerus 3.56625 7.3974 67.9694
lradius 51.6722
lwrist -13.6426
lhand -35.6032 -15.8073
lfingers 7.12502
lthumb -8.72693 13.9923
rfemur -33.7373 -11.8258 14.0058
rtibia 36.1204
rfoot 2.10472 12.9834
rtoes -18.755
lfemur 0.0745516 -7.72183 -14.9555
ltibia 39.7307
lfoot -26.1603 -0.353976
ltoes -12.9521
